<?xml version="1.0" encoding="utf-8"?>
<!-- Generator: Adobe Illustrator 22.0.0, SVG Export Plug-In . SVG Version: 6.00 Build 0)  -->
<svg version="1.1" id="Layer_1" xmlns="http://www.w3.org/2000/svg" xmlns:xlink="http://www.w3.org/1999/xlink" x="0px" y="0px"
	 viewBox="0 0 53.9 56.4" style="enable-background:new 0 0 53.9 56.4;" xml:space="preserve">
<style type="text/css">
	.st0{fill:#0f83e0;}
</style>
<path class="st0" d="M50.5,33.8H39.3L19.6,53.4c-0.2,0.2-0.5,0.4-0.7,0.6h31.6c1.9,0,3.4-1.5,3.4-3.4V37.1
	C53.9,35.3,52.4,33.8,50.5,33.8z M45.8,17.6l-9.5-9.5c-1.3-1.3-3.4-1.3-4.8,0l-8,8v27.8c0,0.3-0.1,0.6-0.1,0.9l22.3-22.4
	C47.2,21.1,47.2,18.9,45.8,17.6L45.8,17.6z M20.2,3.4c0-1.9-1.5-3.4-3.4-3.4H3.4C1.5,0,0,1.5,0,3.4v40.5C0,49.5,4.5,54,10.1,54
	s10.1-4.5,10.1-10.1V3.4z M10.1,46.4c-1.4,0-2.5-1.1-2.5-2.5c0-1.4,1.1-2.5,2.5-2.5s2.5,1.1,2.5,2.5C12.6,45.3,11.5,46.4,10.1,46.4z
	 M13.5,27H6.7v-6.8h6.7L13.5,27L13.5,27z M13.5,13.5H6.7V6.8h6.7L13.5,13.5L13.5,13.5z"/>
</svg>
